PathFileType	3	(X/Y/Z)	D:\Vicon Database\Healthy Subjects\S0040\Jan. 30, 2020\Force Plate Walk 7.trc
DataRate	CameraRate	NumFrames	NumMarkers	Units	OrigDataRate	OrigDataStartFrame	OrigNumFrames
100.0	100.0	6	53	mm	100.0	273	319	
Frame#	Time	sternum_cluster1			sternum_cluster2			sternum_cluster3			left_asis			right_asis			left_psis			right_psis			sacrum_cluster1			sacrum_cluster2			sacrum_cluster3			left_lat_femoral_epicondyle			left_anterior_thigh15			left_anterior_thigh25			left_anterior_thigh50			left_lateral_thigh25			left_lateral_thigh50			left_thigh_cluster1			left_thigh_cluster2			left_thigh_cluster3			left_fibular_head			left_tibial_tuberosity			left_anterior_shank30			left_lateral_malleolus			left_shank_cluster1			left_shank_cluster2			left_shank_cluster3			left_heel			left_metatarsal2			left_foot_cluster1			left_foot_cluster2			left_foot_cluster3			right_lat_femoral_epicondyle			right_anterior_thigh15			right_anterior_thigh25			right_anterior_thigh50			right_lateral_thigh25			right_lateral_thigh50			right_thigh_cluster1			right_thigh_cluster2			right_thigh_cluster3			right_fibular_head			right_tibial_tuberosity			right_lateral_distal_shank			right_anterior_shank30			right_lateral_malleolus			right_shank_cluster1			right_shank_cluster2			right_shank_cluster3			right_heel			right_metatarsal2			right_foot_cluster1			right_foot_cluster2			right_foot_cluster3			
		X1	Y1	Z1	X2	Y2	Z2	X3	Y3	Z3	X4	Y4	Z4	X5	Y5	Z5	X6	Y6	Z6	X7	Y7	Z7	X8	Y8	Z8	X9	Y9	Z9	X10	Y10	Z10	X11	Y11	Z11	X12	Y12	Z12	X13	Y13	Z13	X14	Y14	Z14	X15	Y15	Z15	X16	Y16	Z16	X17	Y17	Z17	X18	Y18	Z18	X19	Y19	Z19	X20	Y20	Z20	X21	Y21	Z21	X22	Y22	Z22	X23	Y23	Z23	X24	Y24	Z24	X25	Y25	Z25	X26	Y26	Z26	X27	Y27	Z27	X28	Y28	Z28	X29	Y29	Z29	X30	Y30	Z30	X31	Y31	Z31	X32	Y32	Z32	X33	Y33	Z33	X34	Y34	Z34	X35	Y35	Z35	X36	Y36	Z36	X37	Y37	Z37	X38	Y38	Z38	X39	Y39	Z39	X40	Y40	Z40	X41	Y41	Z41	X42	Y42	Z42	X43	Y43	Z43	X44	Y44	Z44	X45	Y45	Z45	X46	Y46	Z46	X47	Y47	Z47	X48	Y48	Z48	X49	Y49	Z49	X50	Y50	Z50	X51	Y51	Z51	X52	Y52	Z52	X53	Y53	Z53	
273	2.72	3176.4951	1430.2067	-113.42393	3165.9238	1401.355	-103.77396	3165.8076	1403.604	-141.66835	3205.3828	1056.9404	3.5795445	3205.3049	1051.3547	-245.64479	3372.0464	1071.4039	-40.660717	3372.3662	1071.9053	-159.17822				3386.0942	1103.5219	-119.99889	3390.1868	1099.3926	-80.355873	3119.3799	549.30957	15.849924	3060.7327	653.5545	-41.313484	3071.8918	737.61407	-19.059692	3117.0103	865.30554	4.4914145	3169.7134	692.07715	44.518097	3211.7432	834.19098	75.263115	3199.7837	787.69049	79.779221	3193.6108	758.80835	75.912949	3161.1865	777.83978	78.31424	3099.6912	471.92502	18.228085	3052.4954	470.4213	-44.951614	3068.1086	216.07367	-55.801693	3114.5068	101.38229	-21.425303	3056.4885	413.75735	-74.049385	3049.4387	386.40381	-66.900192	3070.4321	386.52615	-99.458946	3187.6201	65.829201	-55.713882	2970.3135	78.57251	-62.457363	3032.5737	122.98068	-55.504013	3007.7026	107.82947	-45.768517	3004.374	113.4042	-83.714256	3334.8699	512.61493	-268.85355	3224.5178	574.10272	-222.50975	3195.4524	656.15527	-216.03712	3181.4788	790.42743	-216.3992	3303.21	666.56543	-285.44415	3283.7927	811.46124	-303.70581	3300.5703	764.23737	-309.93106	3292.2944	736.29584	-308.37445	3330.0527	739.37152	-301.02051	3380.4565	464.55136	-272.9472	3340.55	418.35666	-233.3676	3581.2297	286.16925	-245.13963	3535.3826	258.28708	-205.81274	3652.9666	213.65889	-229.30362	3391.0181	372.78317	-173.08179	3414.2549	357.98514	-164.83649	3401.719	342.91205	-197.18071	3713.8184	262.91147	-185.17683	3615.1536	66.974754	-190.18388	3594.9351	136.25389	-193.70335	3598.3604	108.05955	-183.61974	3597.9475	110.00917	-220.58438
274	2.73	3164.2805	1431.162	-112.82216	3152.6345	1403.0889	-103.48868	3152.821	1405.3094	-141.61395	3191.05	1058.5476	4.6217098	3191.7771	1052.2391	-245.0619	3357.8875	1072.9264	-39.974548	3358.5544	1072.4611	-158.41769				3372.012	1104.342	-119.28332	3376.0295	1100.7133	-79.734245	3110.8379	549.4007	16.737314	3050.7546	653.78918	-40.409153	3060.8037	737.94171	-18.518085	3104.1653	866.04688	5.4434052	3158.6216	693.38074	45.444035	3199.1921	835.65906	76.155777	3187.9102	789.4295	80.609299	3181.9521	760.20398	76.719696	3149.9336	779.31769	79.649063	3092.5464	471.20728	18.96583	3047.5093	469.15918	-44.855896	3065.2732	214.98331	-55.539658	3114.0186	101.13364	-21.426249	3050.498	412.44025	-73.551315	3043.8164	385.06198	-66.407982	3064.5754	385.69724	-98.830711	3187.5776	65.902893	-56.122074	2969.9932	77.586288	-62.446281	3032.0671	122.49158	-55.59795	3007.4985	106.72197	-45.706543	3003.9238	112.5701	-83.60218	3306.7139	510.71756	-270.65878	3198.3181	575.21332	-225.58206	3172.7419	657.66772	-218.57843	3163.8125	792.47919	-216.22145	3279.6892	665.10339	-287.77252	3265.7866	811.33398	-303.84558	3280.9309	763.01703	-310.41483	3271.8743	735.61304	-309.48227	3309.5608	737.29041	-301.36795	3352.5205	463.83792	-274.84317	3312.9028	417.48401	-235.64606	3556.8813	291.66251	-246.40865	3511.1594	262.18951	-207.46204	3629.3679	220.93187	-230.19751	3363.4504	371.79498	-174.92134	3387.3469	357.72427	-167.51797	3375.8652	342.4537	-199.57159	3684.6333	275.67255	-185.23505	3603.2271	71.662575	-191.18703	3576.657	139.95641	-194.80919	3582.2136	111.53463	-184.79535	3582.6228	113.96346	-222.37506
275	2.74	3150.0034	1433.1804	-112.05423	3139.428	1404.8158	-103.40034	3139.9795	1406.8267	-141.43112	3176.927	1060.174	5.4816017	3178.439	1052.9752	-244.46152	3343.9612	1074.4506	-39.473446	3346.2104	1073.6659	-158.03168				3358.3513	1105.1932	-118.75411	3361.9353	1101.8412	-79.347191	3104.1226	548.71155	17.840324	3041.3696	652.84351	-38.752728	3050.2649	737.87933	-17.632429	3091.623	866.12677	6.5445786	3148.6323	694.06818	46.465546	3187.135	836.9408	77.245651	3176.1826	790.8064	82.348694	3171.1467	761.66602	77.67189	3138.761	779.9873	80.794548	3086.3728	470.6785	19.985792	3041.3938	467.69598	-43.49152	3062.8203	213.89964	-54.984371	3113.8279	101.05056	-21.68298	3044.5457	410.76288	-72.185799	3038.2231	383.54709	-65.041229	3058.6919	384.65555	-97.838432	3187.4675	65.793098	-56.162868	2969.7251	76.72345	-62.225731	3031.666	122.02058	-55.777027	3007.2207	106.27419	-45.676788	3003.5122	111.92831	-83.503647	3278.9133	509.54318	-272.20139	3173.8088	576.67914	-227.62283	3150.271	659.84973	-220.30667	3146.2708	794.75238	-216.13136	3257.1619	664.37823	-289.72665	3248.4473	810.88623	-303.10654	3261.5237	762.25781	-311.20029	3251.8181	735.3363	-310.14908	3289.4111	735.58929	-301.77637	3323.5408	463.51346	-277.01208	3285.0168	417.6557	-237.5251	3531.3323	296.25931	-247.24055	3486.4126	266.09579	-208.2683	3605.0754	227.10347	-230.33592	3335.7751	372.15448	-178.06461	3359.6609	358.13504	-168.81619	3348.7642	343.41559	-201.99118	3656.0276	285.78027	-185.80394	3589.2942	76.82122	-191.67802	3556.9663	144.66383	-194.41597	3564.5791	115.95589	-185.13423	3566.7444	116.95032	-222.59225
276	2.75	3136.3687	1434.9584	-111.98716	3126.1733	1406.4355	-103.50364	3126.7729	1408.6891	-141.41177	3162.9536	1061.6785	5.960372	3165.4097	1053.7603	-244.12373	3330.2168	1076.0281	-39.127464	3331.9666	1073.5919	-157.61615				3344.8218	1106.2357	-118.52773	3347.958	1103.0391	-79.099312	3098.2925	548.14484	18.947811	3032.6128	650.98785	-36.575066	3040.0085	736.68176	-16.454281	3079.4424	865.73352	7.6856432	3139.6577	694.48682	47.425484	3175.2517	838.08722	78.065285	3166.0781	791.65082	82.210411	3160.7615	762.21417	77.843895	3127.7183	780.508	81.474609	3081.2771	469.51456	21.564041	3035.3311	466.01855	-41.414188	3060.5388	212.71533	-54.137115	3113.5393	100.83216	-21.67207	3038.532	409.68896	-70.182251	3032.9001	382.06839	-63.243561	3053.0764	383.5329	-96.397606	3187.6477	66.334793	-56.275906	2969.4626	75.882912	-61.99445	3031.478	121.49611	-55.764442	3006.6665	106.27707	-45.518036	3003.2678	111.19895	-83.236839	3251.4495	509.2265	-273.25092	3148.4075	579.00043	-228.927	3127.9424	662.64026	-221.32362	3128.7366	797.34619	-216.12659	3234.7439	664.2735	-290.60431	3231.2686	811.09753	-303.19879	3242.7258	762.12616	-311.06241	3232.3918	735.81012	-311.36453	3269.738	734.62714	-302.06552	3294.981	463.63354	-278.96484	3256.7593	417.7244	-238.81104	3505.5112	300.91074	-247.89107	3461.3794	270.16605	-208.49849	3581.0186	233.64676	-230.52103	3308.1758	372.26974	-179.57225	3332.1099	358.83948	-171.40047	3323.124	344.24036	-204.50981	3630.6035	293.80386	-186.63365	3570.071	83.130112	-191.29193	3536.365	148.5341	-195.86528	3543.925	121.0472	-184.00053	3545.5591	122.46706	-222.86971
277	2.76	3124.5295	1436.0066	-112.67086	3112.8416	1407.9391	-103.59398	3113.8142	1409.9825	-141.55084	3148.8962	1063.269	6.2117348	3152.6355	1054.8164	-244.12923	3316.6563	1077.6443	-38.75919	3318.8994	1074.1345	-157.29021				3331.4714	1107.3301	-118.25893	3334.2222	1104.3038	-78.800903	3092.6665	547.24335	20.080452	3024.325	648.62189	-33.921993	3030.0557	734.62146	-14.535115	3067.6213	864.98505	8.5143843	3131.7883	694.36499	47.918842	3163.949	839.01831	78.764771	3155.772	792.10254	83.172043	3150.8494	763.09985	78.893829	3117.5076	780.2934	82.491829	3076.5723	468.69189	23.081875	3029.3413	464.41879	-38.792667	3058.4297	211.78543	-53.000275	3113.3118	100.67178	-21.424959	3032.9727	408.45782	-68.160492	3027.8225	380.58978	-61.183491	3047.3162	382.51358	-94.214241	3187.6458	66.59771	-56.189667	2969.2029	75.415215	-61.677433	3031.1672	121.14159	-55.678055	3006.6409	105.93219	-45.459587	3003.2871	110.71399	-83.278381	3224.1121	509.75406	-274.3446	3123.135	581.91858	-229.39464	3106.1504	665.89844	-221.59431	3111.304	800.26416	-216.09227	3212.2715	664.48126	-290.78592	3214.5974	811.31488	-302.62192	3224.0393	762.58691	-311.00909	3212.8137	736.34106	-311.12994	3250.2207	734.34723	-302.03436	3267.2002	465.32361	-279.79877	3228.3987	418.84464	-239.57019	3479.884	307.0155	-248.44115	3435.8447	275.46405	-208.99341	3556.5032	240.97974	-230.79623	3280.7239	373.28204	-180.6297	3305.0022	360.44159	-172.35268	3295.8716	346.60202	-205.63846	3607.8408	300.38126	-188.06133	3543.3816	90.27903	-190.69965	3510.6873	156.09682	-194.9101	3518.1729	129.57582	-183.84201	3518.5164	130.45305	-221.8192
278	2.77	3111.0239	1438.0391	-113.07069	3099.7212	1409.4309	-103.77987	3100.7939	1411.7784	-141.79327	3135.2168	1064.6742	6.390779	3140.1289	1055.9877	-244.40167	3303.3308	1079.2551	-38.392506	3306.1292	1074.9889	-156.94081				3318.3542	1108.5502	-117.95862	3320.823	1105.7329	-78.474983	3087.2285	546.29901	21.387028	3016.8511	645.84796	-31.45085	3020.6028	731.90839	-12.386725	3056.2351	863.76166	9.49014	3123.9453	694.31836	48.896362	3153.04	839.93195	79.455795	3145.5972	792.69226	83.795776	3141.2102	763.75586	79.491135	3107.6992	780.12915	83.375206	3072.1501	467.72284	24.755096	3022.5986	463.18802	-35.73962	3056.6333	210.94487	-51.800461	3113.1116	100.47653	-21.139957	3027.8213	407.07474	-65.922173	3023.5867	379.23444	-59.230247	3042.585	381.33124	-92.512947	3187.2781	66.285652	-55.986282	2969.0188	75.144081	-61.21769	3031.0007	120.89738	-55.479023	3006.6172	105.45492	-44.880344	3003.0217	110.8812	-83.164055	3196.6675	511.06931	-275.11188	3098.1531	585.26501	-228.85838	3083.1897	670.25146	-220.79414	3093.9653	803.8703	-215.99196	3191.5564	665.82306	-291.65192	3198.3857	812.05701	-301.94861	3205.4719	763.59076	-310.72644	3193.9365	737.87256	-312.02856	3230.7839	734.4422	-301.88202	3239.0012	466.93057	-280.54514	3200.2903	420.48627	-239.74338	3453.5862	312.78342	-248.24977	3410.1816	280.54712	-209.27718	3530.5979	246.61073	-230.89145	3253.5142	375.15625	-180.44452	3277.9011	362.46603	-171.98851	3267.8293	349.26917	-206.10007	3585.2444	304.31784	-189.76338	3511.5818	97.393127	-189.30139	3482.7776	166.74181	-195.55891	3488.7573	137.37703	-181.7672	3487.907	138.17361	-219.96901
